<?xml version="1.0" encoding="UTF-8"?>
<svg height="388px" version="1.1" viewbox="0 0 690 388" width="690px" xmlns="http://www.w3.org/2000/svg" xmlns:xlink="http://www.w3.org/1999/xlink">
<!-- Generator: Sketch 55.2 (78181) - https://sketchapp.com -->
<title>start</title>
<desc>Created with Sketch.</desc>
<g fill="none" fill-rule="evenodd" id="start" stroke="none" stroke-width="1">
<path d="M 306.19,279.53 C 303.91,278.74 299.80,276.33 302.47,269.03 C 305.14,261.73 310.50,257.92 314.26,255.23 C 318.02,252.54 335.76,244.09 355.47,249.66 C 375.18,255.23 380.39,266.98 381.79,271.63 C 383.19,276.29 383.02,283.32 379.94,298.19 C 376.87,313.07 375.17,319.05 366.34,323.53 C 357.51,328.00 333.91,326.81 319.36,318.64 C 304.81,310.47 303.91,322.25 291.37,320.61 C 278.83,318.96 274.55,283.93 283.92,278.74 C 293.30,273.55 299.47,280.47 303.91,287.70 C 308.34,294.92 311.76,292.29 313.33,291.33 C 314.90,290.38 314.82,285.65 313.33,282.99 C 311.83,280.33 308.47,280.33 306.19,279.53 Z" fill="#EF5541" id="tongue" stroke="#000000" stroke-width="2"><animate attributeName="d" begin="0.5s" dur="0.00s" fill="freeze" id="d_b1_tongue_1_0" repeatCount="1" to="M 304.79,274.25 C 302.37,271.96 296.08,268.62 297.68,262.29 C 299.27,255.96 306.26,252.49 311.90,250.71 C 317.55,248.92 335.76,244.09 355.47,249.66 C 375.18,255.23 380.39,266.98 381.79,271.63 C 383.19,276.29 383.02,283.32 379.94,298.19 C 376.87,313.07 370.17,319.05 361.34,323.53 C 352.51,328.00 333.91,326.81 319.36,318.64 C 304.81,310.47 303.91,322.25 291.37,320.61 C 278.83,318.96 274.55,283.93 283.92,278.74 C 293.30,273.55 299.47,279.47 303.91,286.70 C 308.34,293.92 311.76,291.29 313.33,290.33 C 314.90,289.38 314.88,285.26 313.33,282.99 C 311.78,280.72 307.20,276.55 304.79,274.25 Z"></animate><animate attributeName="d" begin="d_b1_tongue_1_0.end" dur="0.01s" fill="freeze" id="d_ey11_tongue_2_0" repeatCount="1" to="M 299.19,275.53 C 293.27,273.13 291.27,269.50 293.47,265.03 C 295.66,260.56 302.91,254.97 309.26,251.23 C 315.61,247.49 328.76,244.09 348.47,249.66 C 368.18,255.23 374.64,267.73 376.79,272.63 C 378.94,277.53 382.02,286.32 378.94,301.19 C 375.87,316.07 376.17,320.05 367.34,324.53 C 358.51,329.00 333.91,327.81 319.36,319.64 C 304.81,311.47 303.91,323.25 291.37,321.61 C 278.83,319.96 274.55,284.93 283.92,279.74 C 293.30,274.55 299.20,281.33 303.63,288.56 C 308.07,295.79 311.24,293.38 312.81,292.43 C 314.37,291.47 315.73,287.43 314.23,284.76 C 312.74,282.10 305.11,277.94 299.19,275.53 Z"></animate><animate attributeName="d" begin="d_ey11_tongue_2_0.end" dur="0.07s" fill="freeze" id="d_ey12_tongue_3_0" repeatCount="1" to="M 302.19,271.53 C 294.09,266.66 294.30,265.47 296.50,261 C 298.69,256.53 305.50,250.16 311.87,246.66 C 318.23,243.16 327.70,239.01 345.14,245.61 C 362.58,252.20 373.21,267.22 375.79,273.63 C 378.37,280.04 381.02,286.32 377.94,301.19 C 374.87,316.07 376.17,320.05 367.34,324.53 C 358.51,329.00 333.91,327.81 319.36,319.64 C 304.81,311.47 303.91,323.25 291.37,321.61 C 278.83,319.96 274.55,286.93 283.92,281.74 C 293.30,276.55 299.20,281.33 303.63,288.56 C 308.07,295.79 311.24,293.38 312.81,292.43 C 314.37,291.47 315.69,289.02 314.23,284.76 C 312.77,280.51 310.29,276.40 302.19,271.53 Z"></animate><animate attributeName="d" begin="d_ey12_tongue_3_0.end" dur="0.41s" fill="freeze" id="d_ey12_tongue_4_0" repeatCount="1" to="M 302.19,271.53 C 294.09,266.66 294.30,265.47 296.50,261 C 298.69,256.53 305.50,250.16 311.87,246.66 C 318.23,243.16 327.70,239.01 345.14,245.61 C 362.58,252.20 373.21,267.22 375.79,273.63 C 378.37,280.04 381.02,286.32 377.94,301.19 C 374.87,316.07 376.17,320.05 367.34,324.53 C 358.51,329.00 333.91,327.81 319.36,319.64 C 304.81,311.47 303.91,323.25 291.37,321.61 C 278.83,319.96 274.55,286.93 283.92,281.74 C 293.30,276.55 299.20,281.33 303.63,288.56 C 308.07,295.79 311.24,293.38 312.81,292.43 C 314.37,291.47 315.69,289.02 314.23,284.76 C 312.77,280.51 310.29,276.40 302.19,271.53 Z"></animate></path>
<path d="M 342.86,268.31 C 340.95,268.31 338.13,287.48 339.04,292.26 C 339.94,297.05 345.69,297.44 346.67,292.26 C 347.64,287.09 344.77,268.31 342.86,268.31 Z" fill="#5D1029" id="lower_arrow"><animate attributeName="d" begin="0.5s" dur="0.00s" fill="freeze" id="d_b1_lower_arrow_1_0" repeatCount="1" to="M 336.48,273 C 334.57,273 338.13,287.48 339.04,292.26 C 339.94,297.05 345.69,297.44 346.67,292.26 C 347.64,287.09 338.39,273 336.48,273 Z"></animate><animate attributeName="d" begin="d_b1_lower_arrow_1_0.end" dur="0.01s" fill="freeze" id="d_ey11_lower_arrow_2_0" repeatCount="1" to="M 330.41,274.26 C 326.94,275.38 340.62,287.09 339.04,292.26 C 337.45,297.44 345.69,297.44 346.67,292.26 C 347.64,287.09 333.88,273.15 330.41,274.26 Z"></animate><animate attributeName="d" begin="d_ey11_lower_arrow_2_0.end" dur="0.07s" fill="freeze" id="d_ey12_lower_arrow_3_0" repeatCount="1" to="M 331.38,274.74 C 329.18,276.76 338.25,283.94 338.64,290.35 C 339.04,296.75 345.98,295.52 346.95,290.35 C 347.92,285.18 339.38,269.50 331.38,274.74 Z"></animate><animate attributeName="d" begin="d_ey12_lower_arrow_3_0.end" dur="0.41s" fill="freeze" id="d_ey12_lower_arrow_4_0" repeatCount="1" to="M 331.38,274.74 C 329.18,276.76 338.25,283.94 338.64,290.35 C 339.04,296.75 345.98,295.52 346.95,290.35 C 347.92,285.18 339.38,269.50 331.38,274.74 Z"></animate></path>
<path d="M238.418228,262.092826 L225.167398,273.035497 C250.395516,267.702164 267.09023,264.453719 275.25154,263.290162 C287.493506,261.544827 295.155995,235.48 320.077998,231.34 C345,227.2 372.905917,226.560544 392.601687,249.33 C412.297458,272.099456 400.181876,318.946857 392.601687,338.328961 C387.548228,351.250364 389.85253,367.504043 399.514592,387.09" id="middle_arrow" opacity="0.0" stroke="#BA7755" stroke-width="2"><animate attributeName="opacity" begin="0.5s" dur="0.00s" fill="freeze" id="opacity_b1_middle_arrow_1" repeatCount="1" to="1.0"></animate><animate attributeName="opacity" begin="opacity_b1_middle_arrow_1.end" dur="0.01s" fill="freeze" id="opacity_ey11_middle_arrow_2" repeatCount="1" to="0.0"></animate><animate attributeName="opacity" begin="opacity_ey11_middle_arrow_2.end" dur="0.07s" fill="freeze" id="opacity_ey12_middle_arrow_3" repeatCount="1" to="0.0"></animate><animate attributeName="opacity" begin="opacity_ey12_middle_arrow_3.end" dur="0.41s" fill="freeze" id="opacity_ey12_middle_arrow_4" repeatCount="1" to="0.0"></animate></path>
<path d="M224.313938,229.761866 L217.980536,243.798316 C220.857816,242.622847 229.805646,237.20245 244.824024,227.537125 C267.351592,213.039138 278.855208,202.107426 310.647788,195.79 C342.440368,189.472574 397.719622,195.018971 405.299811,236.848971 C412.88,278.678971 400.181876,318.946857 392.601687,338.328961 C387.548228,351.250364 389.85253,367.504043 399.514592,387.09" id="upper_arrow" opacity="0.0" stroke="#BA7755" stroke-width="2"><animate attributeName="opacity" begin="0.5s" dur="0.00s" fill="freeze" id="opacity_b1_upper_arrow_1" repeatCount="1" to="0.0"></animate><animate attributeName="opacity" begin="opacity_b1_upper_arrow_1.end" dur="0.01s" fill="freeze" id="opacity_ey11_upper_arrow_2" repeatCount="1" to="0.0"></animate><animate attributeName="opacity" begin="opacity_ey11_upper_arrow_2.end" dur="0.07s" fill="freeze" id="opacity_ey12_upper_arrow_3" repeatCount="1" to="0.0"></animate><animate attributeName="opacity" begin="opacity_ey12_upper_arrow_3.end" dur="0.41s" fill="freeze" id="opacity_ey12_upper_arrow_4" repeatCount="1" to="0.0"></animate></path>
<path d="M 269.38,270.01 C 273.90,269.08 277.25,270.18 279.77,272.91 C 281.87,275.20 282.77,279.99 283.69,280.30 C 284.61,280.60 284.18,278.18 284.14,274.37 C 284.11,270.52 284.28,264.29 285.62,264.29 C 288.29,264.29 294.52,279.37 295.38,281.75 C 296.25,284.14 299.14,291.67 295.38,300.03 C 292.44,306.74 290.57,300.45 289.84,298.61 C 289.11,296.78 284.80,279.09 284.14,281.75 C 283.48,284.42 287.64,301.61 287.64,307.55 C 287.64,313.49 293.21,315.67 297.25,313.11 C 301.30,310.55 314.39,308.60 335.95,317.68 C 357.51,326.76 370.76,317.24 374.13,314.84 C 377.49,312.44 376.98,317.06 376.41,318.36 C 375.84,319.66 373.88,323.41 377.49,323.41 C 381.10,323.41 387.73,309.79 389.45,307.55 C 391.17,305.31 393.87,303.04 396.42,305.65 C 398.98,308.26 395.03,316.92 389.45,329.52 C 383.87,342.12 382.69,348.27 386.22,363.98 C 388.57,374.45 391.97,382.22 396.42,387.27 L 364.65,386.76 C 363.94,370.81 362.74,360.64 361.07,356.27 C 358.56,349.72 349.65,337.24 333.86,334.60 C 318.08,331.96 317.27,331.91 307.00,332.67 C 296.73,333.43 285.27,339.57 279.02,328.52 C 272.76,317.48 277.74,308.17 275.45,300.93 C 273.16,293.69 264.79,287.72 263.20,283.99 C 261.62,280.25 261.07,271.73 269.38,270.01 Z" fill="#FFD5B2" id="lower_lip" stroke="#000000" stroke-opacity="0.85" stroke-width="2"><animate attributeName="d" begin="0.5s" dur="0.00s" fill="freeze" id="d_b1_lower_lip_1_0" repeatCount="1" to="M 265.68,264 C 273.04,264.04 276.25,268.18 278.77,270.91 C 280.87,273.20 281.77,277.99 282.69,278.30 C 283.61,278.60 283.18,276.18 283.14,272.37 C 283.11,268.52 283.28,262.29 284.62,262.29 C 287.29,262.29 293.52,277.37 294.38,279.75 C 295.25,282.14 298.14,289.67 294.38,298.03 C 291.44,304.74 289.57,298.45 288.84,296.61 C 288.11,294.78 283.80,277.09 283.14,279.75 C 282.48,282.42 286.64,299.61 286.64,305.55 C 286.64,311.49 292.21,313.67 296.25,311.11 C 300.30,308.55 313.39,306.60 334.95,315.68 C 356.51,324.76 370.76,315.24 374.13,312.84 C 377.49,310.44 376.98,315.06 376.41,316.36 C 375.84,317.66 373.88,321.41 377.49,321.41 C 381.10,321.41 387.73,308.79 389.45,306.55 C 391.17,304.31 393.87,302.04 396.42,304.65 C 398.98,307.26 395.03,315.92 389.45,328.52 C 383.87,341.12 382.69,348.27 386.22,363.98 C 388.57,374.45 391.97,382.22 396.42,387.27 L 364.65,386.76 C 363.27,369.47 361.74,358.64 360.07,354.27 C 357.56,347.72 348.65,335.24 332.86,332.60 C 317.08,329.96 316.27,329.91 306.00,330.67 C 295.73,331.43 284.27,337.57 278.02,326.52 C 271.76,315.48 276.74,306.17 274.45,298.93 C 272.16,291.69 263.79,285.72 262.20,281.99 C 260.62,278.25 253.03,263.93 265.68,264 Z"></animate><animate attributeName="d" begin="d_b1_lower_lip_1_0.end" dur="0.01s" fill="freeze" id="d_ey11_lower_lip_2_0" repeatCount="1" to="M 269.38,270.01 C 273.90,269.08 277.25,270.18 279.77,272.91 C 281.87,275.20 282.77,279.99 283.69,280.30 C 284.61,280.60 284.18,278.18 284.14,274.37 C 284.11,270.52 284.28,264.29 285.62,264.29 C 288.29,264.29 294.52,279.37 295.38,281.75 C 296.25,284.14 299.14,291.67 295.38,300.03 C 292.44,306.74 290.57,300.45 289.84,298.61 C 289.11,296.78 284.80,279.09 284.14,281.75 C 283.48,284.42 287.64,303.61 287.64,309.55 C 287.64,315.49 293.21,317.67 297.25,315.11 C 301.30,312.55 314.39,308.60 335.95,317.68 C 357.51,326.76 370.76,318.24 374.13,315.84 C 377.49,313.44 376.98,318.06 376.41,319.36 C 375.84,320.66 373.88,324.41 377.49,324.41 C 381.10,324.41 387.73,310.79 389.45,308.55 C 391.17,306.31 393.87,304.04 396.42,306.65 C 398.98,309.26 395.03,317.92 389.45,330.52 C 383.87,343.12 382.69,348.27 386.22,363.98 C 388.57,374.45 391.97,382.22 396.42,387.27 L 364.65,386.76 C 363.94,370.81 362.74,360.64 361.07,356.27 C 358.56,349.72 349.65,337.24 333.86,334.60 C 318.08,331.96 317.27,333.91 307.00,334.67 C 296.73,335.43 285.27,341.57 279.02,330.52 C 272.76,319.48 277.74,308.17 275.45,300.93 C 273.16,293.69 264.79,287.72 263.20,283.99 C 261.62,280.25 261.07,271.73 269.38,270.01 Z"></animate><animate attributeName="d" begin="d_ey11_lower_lip_2_0.end" dur="0.07s" fill="freeze" id="d_ey12_lower_lip_3_0" repeatCount="1" to="M 269.38,270.01 C 273.90,269.08 277.25,270.18 279.77,272.91 C 281.87,275.20 282.77,279.99 283.69,280.30 C 284.61,280.60 284.18,278.18 284.14,274.37 C 284.11,270.52 284.28,264.29 285.62,264.29 C 288.29,264.29 294.52,279.37 295.38,281.75 C 296.25,284.14 299.14,291.67 295.38,300.03 C 292.44,306.74 290.57,300.45 289.84,298.61 C 289.11,296.78 284.80,279.09 284.14,281.75 C 283.48,284.42 287.64,303.61 287.64,309.55 C 287.64,315.49 293.21,317.67 297.25,315.11 C 301.30,312.55 314.39,308.60 335.95,317.68 C 357.51,326.76 370.76,318.24 374.13,315.84 C 377.49,313.44 376.98,318.06 376.41,319.36 C 375.84,320.66 373.88,324.41 377.49,324.41 C 381.10,324.41 387.73,310.79 389.45,308.55 C 391.17,306.31 393.87,304.04 396.42,306.65 C 398.98,309.26 395.03,317.92 389.45,330.52 C 383.87,343.12 382.69,348.27 386.22,363.98 C 388.57,374.45 391.97,382.22 396.42,387.27 L 364.65,386.76 C 363.94,370.81 362.74,360.64 361.07,356.27 C 358.56,349.72 349.65,337.24 333.86,334.60 C 318.08,331.96 317.27,333.91 307.00,334.67 C 296.73,335.43 285.27,341.57 279.02,330.52 C 272.76,319.48 277.74,308.17 275.45,300.93 C 273.16,293.69 264.79,287.72 263.20,283.99 C 261.62,280.25 261.07,271.73 269.38,270.01 Z"></animate><animate attributeName="d" begin="d_ey12_lower_lip_3_0.end" dur="0.41s" fill="freeze" id="d_ey12_lower_lip_4_0" repeatCount="1" to="M 269.38,270.01 C 273.90,269.08 277.25,270.18 279.77,272.91 C 281.87,275.20 282.77,279.99 283.69,280.30 C 284.61,280.60 284.18,278.18 284.14,274.37 C 284.11,270.52 284.28,264.29 285.62,264.29 C 288.29,264.29 294.52,279.37 295.38,281.75 C 296.25,284.14 299.14,291.67 295.38,300.03 C 292.44,306.74 290.57,300.45 289.84,298.61 C 289.11,296.78 284.80,279.09 284.14,281.75 C 283.48,284.42 287.64,303.61 287.64,309.55 C 287.64,315.49 293.21,317.67 297.25,315.11 C 301.30,312.55 314.39,308.60 335.95,317.68 C 357.51,326.76 370.76,318.24 374.13,315.84 C 377.49,313.44 376.98,318.06 376.41,319.36 C 375.84,320.66 373.88,324.41 377.49,324.41 C 381.10,324.41 387.73,310.79 389.45,308.55 C 391.17,306.31 393.87,304.04 396.42,306.65 C 398.98,309.26 395.03,317.92 389.45,330.52 C 383.87,343.12 382.69,348.27 386.22,363.98 C 388.57,374.45 391.97,382.22 396.42,387.27 L 364.65,386.76 C 363.94,370.81 362.74,360.64 361.07,356.27 C 358.56,349.72 349.65,337.24 333.86,334.60 C 318.08,331.96 317.27,333.91 307.00,334.67 C 296.73,335.43 285.27,341.57 279.02,330.52 C 272.76,319.48 277.74,308.17 275.45,300.93 C 273.16,293.69 264.79,287.72 263.20,283.99 C 261.62,280.25 261.07,271.73 269.38,270.01 Z"></animate></path>
<path d="M 259.30,222.15 C 263.20,218.36 274.62,211.69 285.62,206.79 C 296.62,201.90 311.15,196.63 335.51,197 C 359.87,197.37 380.49,205.52 387.74,213.32 C 395.00,221.12 401.09,231.96 399.15,243.02 C 397.22,254.09 391.54,257.87 387.74,254.54 C 383.95,251.20 382.69,233.82 372.35,224.77 C 362.00,215.72 344.28,213.82 333.86,213.82 C 323.45,213.82 303.61,219.30 297.97,224.77 C 292.33,230.24 290.35,233.04 289.49,237.50 C 289.28,238.56 288.96,241.57 288.51,246.54 C 283.44,255.77 280.19,260.28 278.74,260.08 C 275.36,259.61 279.89,240.20 279.89,238.85 C 279.89,237.50 279.85,233.69 277.36,237.50 C 274.87,241.31 273.74,253.27 271.70,255.55 C 269.66,257.84 266.21,259.08 259.77,256.46 C 253.33,253.84 254.28,250.59 255.00,246.24 C 255.71,241.88 258.25,236.66 259.77,233.82 C 261.29,230.99 255.40,225.93 259.30,222.15 Z" fill="#FFD5B2" fill-opacity="0.85" id="upper_lip" stroke="#000000" stroke-opacity="0.85" stroke-width="2"><animate attributeName="d" begin="0.5s" dur="0.00s" fill="freeze" id="d_b1_upper_lip_1_0" repeatCount="1" to="M 259.30,222.15 C 263.20,218.36 274.62,211.69 285.62,206.79 C 296.62,201.90 311.15,196.63 335.51,197 C 359.87,197.37 382.63,201.29 393.74,210.32 C 404.85,219.35 411.09,226.96 409.15,238.02 C 407.22,249.09 401.54,252.87 397.74,249.54 C 393.95,246.20 388.68,227.55 376.35,219.77 C 364.02,211.99 346.73,212.85 333.86,213.82 C 321.00,214.78 303.61,219.30 297.97,224.77 C 292.33,230.24 288.35,233.04 287.49,237.50 C 287.18,239.09 287.52,243.19 286.51,246.54 C 284.67,252.59 278.91,261.38 276.74,261.08 C 273.36,260.61 277.89,240.20 277.89,238.85 C 277.89,237.50 277.85,233.69 275.36,237.50 C 272.87,241.31 272.74,259.27 270.70,261.55 C 268.66,263.84 265.21,265.08 258.77,262.46 C 252.33,259.84 252.64,251.90 253.47,248.43 C 254.29,244.96 258.25,236.66 259.77,233.82 C 261.29,230.99 255.40,225.93 259.30,222.15 Z"></animate><animate attributeName="d" begin="d_b1_upper_lip_1_0.end" dur="0.01s" fill="freeze" id="d_ey11_upper_lip_2_0" repeatCount="1" to="M 259.30,222.15 C 263.20,218.36 274.62,211.69 285.62,206.79 C 296.62,201.90 311.15,196.63 335.51,197 C 359.87,197.37 392.49,205.52 399.74,213.32 C 407.00,221.12 413.09,231.96 411.15,243.02 C 409.22,254.09 402.54,248.87 398.74,245.54 C 394.95,242.20 384.74,230.34 371.97,223.77 C 359.19,217.20 344.28,213.82 333.86,213.82 C 323.45,213.82 303.61,219.30 297.97,224.77 C 292.33,230.24 290.35,233.04 289.49,237.50 C 289.28,238.56 288.96,241.57 288.51,246.54 C 283.44,255.77 280.19,260.28 278.74,260.08 C 275.36,259.61 279.89,240.20 279.89,238.85 C 279.89,237.50 279.85,233.69 277.36,237.50 C 274.87,241.31 273.74,253.27 271.70,255.55 C 269.66,257.84 266.21,259.08 259.77,256.46 C 253.33,253.84 254.28,250.59 255.00,246.24 C 255.71,241.88 258.25,236.66 259.77,233.82 C 261.29,230.99 255.40,225.93 259.30,222.15 Z"></animate><animate attributeName="d" begin="d_ey11_upper_lip_2_0.end" dur="0.07s" fill="freeze" id="d_ey12_upper_lip_3_0" repeatCount="1" to="M 259.30,222.15 C 263.20,218.36 274.62,211.69 285.62,206.79 C 296.62,201.90 311.15,196.63 335.51,197 C 359.87,197.37 392.49,205.52 399.74,213.32 C 407.00,221.12 413.09,231.96 411.15,243.02 C 409.22,254.09 402.54,248.87 398.74,245.54 C 394.95,242.20 384.74,230.34 371.97,223.77 C 359.19,217.20 344.28,213.82 333.86,213.82 C 323.45,213.82 303.61,219.30 297.97,224.77 C 292.33,230.24 290.35,233.04 289.49,237.50 C 289.28,238.56 288.96,241.57 288.51,246.54 C 283.44,255.77 280.19,260.28 278.74,260.08 C 275.36,259.61 279.89,240.20 279.89,238.85 C 279.89,237.50 279.85,233.69 277.36,237.50 C 274.87,241.31 273.74,253.27 271.70,255.55 C 269.66,257.84 266.21,259.08 259.77,256.46 C 253.33,253.84 254.28,250.59 255.00,246.24 C 255.71,241.88 258.25,236.66 259.77,233.82 C 261.29,230.99 255.40,225.93 259.30,222.15 Z"></animate><animate attributeName="d" begin="d_ey12_upper_lip_3_0.end" dur="0.41s" fill="freeze" id="d_ey12_upper_lip_4_0" repeatCount="1" to="M 259.30,222.15 C 263.20,218.36 274.62,211.69 285.62,206.79 C 296.62,201.90 311.15,196.63 335.51,197 C 359.87,197.37 392.49,205.52 399.74,213.32 C 407.00,221.12 413.09,231.96 411.15,243.02 C 409.22,254.09 402.54,248.87 398.74,245.54 C 394.95,242.20 384.74,230.34 371.97,223.77 C 359.19,217.20 344.28,213.82 333.86,213.82 C 323.45,213.82 303.61,219.30 297.97,224.77 C 292.33,230.24 290.35,233.04 289.49,237.50 C 289.28,238.56 288.96,241.57 288.51,246.54 C 283.44,255.77 280.19,260.28 278.74,260.08 C 275.36,259.61 279.89,240.20 279.89,238.85 C 279.89,237.50 279.85,233.69 277.36,237.50 C 274.87,241.31 273.74,253.27 271.70,255.55 C 269.66,257.84 266.21,259.08 259.77,256.46 C 253.33,253.84 254.28,250.59 255.00,246.24 C 255.71,241.88 258.25,236.66 259.77,233.82 C 261.29,230.99 255.40,225.93 259.30,222.15 Z"></animate></path>
<g id="head" transform="translate(231.619447, 25.023729)">
<path d="M13.9505525,42.9762711 C20.1905525,57.7362711 22.0705525,90.1162711 59.1305525,88.4462711 L80.8805525,71.9762711 C80.8805525,71.9762711 91.4605525,52.5062711 130.880553,62.5162711 C170.300553,72.5262711 173.380553,66.9762711 172.740553,92.6962711 C172.100553,118.416271 182.870553,133.906271 166.890553,169.696271 L198.380553,184.116271 C198.380553,184.116271 204.150553,148.046271 216.840553,154.396271 C229.530553,160.746271 223.840553,160.396271 209.190553,186.816271 C194.540553,213.236271 190.380553,361.416271 190.380553,361.416271 C214.290553,361.866271 331.740553,362.066271 331.740553,362.066271 C331.740553,362.066271 257.280553,210.156271 262.620553,183.786271 C267.960553,157.416271 285.960553,67.2062711 242.970553,42.6762711 C238.280553,40.0062711 224.790553,33.1862711 219.690553,31.3962711 C217.520553,30.6362711 210.850553,28.4662711 208.760553,27.5162711 C206.480553,26.5162711 198.370553,24.6262711 198.370553,24.6262711 C194.222801,17.9736069 188.040127,12.8359906 180.740553,9.97627112 C163.010553,2.91627112 135.320553,1.09627112 108.020553,10.0562711 C97.4805525,13.5162711 58.6705525,-5.71372888 49.0205525,1.72627112 C41.5905525,7.44627112 10.1605525,18.0262711 2.15055253,17.3562711 C-5.85944747,16.6862711 10.8605525,35.6362711 13.9505525,42.9762711 Z" fill="#534741" fill-rule="nonzero" id="路径" stroke="#000000" stroke-width="2"></path>
<path d="M68.9905525,65.5162711 C66.3905525,70.7362711 52.9305525,94.9962711 45.4705525,134.116271 C45.1741041,135.686896 44.1446212,137.021136 42.7005525,137.706271 C35.2705525,141.216271 20.0405525,142.126271 10.7905525,159.516271 C7.30055253,166.096271 6.20055253,173.276271 7.30055253,178.066271 C8.85055253,184.846271 11.4805525,189.066271 16.6905525,191.536271 C18.9605525,192.606271 23.5905525,191.536271 25.5805525,190.046271 C31.9605525,185.176271 38.5805525,179.506271 59.2705525,172.396271 C73.2705525,167.606271 95.9905525,164.736271 117.120553,166.306271 C144.210553,168.306271 160.240553,177.756271 168.220553,188.666271 C180.010553,204.766271 186.750553,229.286271 179.610553,293.866271 C179.610553,293.866271 174.050553,330.726271 187.150553,359.296271 L188.250553,361.856271 L225.800553,361.786271 C226.800553,361.726271 219.620553,353.236271 218.110553,350.786271 C215.650553,346.856271 208.580553,338.726271 204.020553,296.896271 C202.920553,286.826271 206.100553,250.776271 207.020553,243.556271 C207.600553,239.156271 207.630553,218.556271 210.350553,214.626271 C214.950553,207.976271 219.200553,222.066271 226.180553,218.446271 C244.830553,208.766271 245.180553,165.646271 242.380553,154.496271 C240.210553,145.746271 233.970553,128.686271 216.040553,135.896271 C207.230553,139.436271 200.490553,155.126271 197.300553,168.016271 C196.690553,170.506271 195.800553,169.016271 192.990553,171.726271 L193.730553,176.476271 C185.430553,178.476271 179.730553,165.356271 179.010553,162.326271 C173.840553,139.776271 192.730553,123.996271 193.010553,104.616271 C193.300553,84.4162711 193.680553,69.6762711 176.210553,56.9062711 C158.740553,44.1362711 121.710553,25.3262711 74.0205525,59.9062711 C72.2277027,61.6687504 70.5477065,63.5424638 68.9905525,65.5162711 L68.9905525,65.5162711 Z" fill="#FFD5B2" fill-rule="nonzero" id="路径" stroke="#000000" stroke-width="2"></path>
<path d="M88.4605525,70.1562711 C88.5205525,67.1562711 91.8905525,62.9962711 98.8905525,59.4062711 C105.330553,56.1062711 112.440553,55.0162711 121.180553,56.7862711 C126.280553,57.7862711 134.640553,61.9962711 135.770553,65.2262711 C136.900553,68.4562711 134.910553,69.6362711 132.560553,69.8662711 C128.860553,70.2162711 125.300553,64.4162711 119.680553,63.4862711 C114.242408,62.7561292 108.708689,63.3214937 103.530553,65.1362711 C99.7105525,66.5662711 95.4005525,72.2962711 93.1705525,72.9162711 C90.7105525,73.5962711 88.3805525,73.5462711 88.4605525,70.1562711 Z" fill="#534741" fill-rule="nonzero" id="路径" stroke="#000000" stroke-width="2"></path>
<path d="M41.1005525,114.146271 C41.5305525,113.486271 46.2405525,108.946271 51.1005525,109.146271 C54.9405525,109.296271 58.3305525,112.146271 60.2205525,121.966271 C60.2205525,122.046271 60.3205525,124.286271 60.3905525,124.366271 C60.4605525,124.446271 60.9305525,126.786271 59.2005525,125.016271 C55.6205525,103.946271 43.6405525,114.776271 43.6905525,116.016271 C43.6905525,116.876271 47.8005525,119.836271 48.5605525,120.486271 C48.4805525,120.556271 47.4005525,122.376271 47.4005525,122.376271 C47.4005525,122.376271 39.4305525,117.866271 41.1005525,114.146271 Z" fill="#000000" fill-rule="nonzero" id="路径"></path>
<path d="M57.5405525,125.556271 C57.4205525,124.556271 58.9105525,120.176271 61.8605525,122.556271 C64.8105525,124.936271 65.1405525,130.676271 63.8605525,131.316271 C62.5805525,131.956271 57.6605525,126.566271 57.5405525,125.556271 Z" fill="#E2E2E2" fill-rule="nonzero" id="路径" opacity="0.58" stroke="#B3B3B3"></path>
<path d="M44.1605525,114.046271 C44.1605525,114.046271 55.2505525,102.786271 59.5005525,123.786271 C59.5129526,124.197526 59.4895309,124.609079 59.4305525,125.016271 C59.3605525,125.176271 57.8105525,119.526271 57.5905525,118.736271 C57.3705525,117.946271 54.5905525,110.136271 47.8405525,112.736271 C46.1572976,113.317596 44.6988208,114.412328 43.6705525,115.866271 C43.6005525,115.976271 43.5605525,114.356271 44.1605525,114.046271 Z" fill="#828282" fill-rule="nonzero" id="路径" opacity="0.4"></path>
<path d="M224.010553,160.216271 L126.730553,134.166271 L126.920553,135.606271 L224.210553,161.106271 C224.321147,161.071035 224.439958,161.071035 224.550553,161.106271 C225.480553,161.376271 245.010553,170.216271 246.690553,175.046271 C246.770553,175.176271 246.690553,176.156271 246.770553,176.046271 L247.240553,175.666271 C247.422622,175.515997 247.507181,175.277696 247.460553,175.046271 C247.160553,173.646271 230.530553,161.556271 224.320553,160.176271 C224.215602,160.169351 224.110309,160.182938 224.010553,160.216271 L224.010553,160.216271 Z" id="路径" stroke="#000000" stroke-width="3"></path>
<path d="M120.670553,137.286271 C120.670553,137.286271 123.510553,138.206271 124.030553,137.996271 C124.550553,137.786271 126.290553,131.626271 126.030553,131.256271 C125.770553,130.886271 122.410553,130.096271 122.410553,130.096271" id="路径" stroke="#000000" stroke-width="3"></path>
<ellipse cx="91.4772272" cy="124.26963" id="椭圆形" rx="32.01" ry="33.34" stroke="#000000" stroke-width="3" transform="translate(91.477227, 124.269630) rotate(-33.490000) translate(-91.477227, -124.269630) "></ellipse>
<path d="M95.8905525,105.446271 C96.7595304,105.551939 97.6188483,105.725809 98.4605525,105.966271 C107.700553,108.706271 113.690553,119.246271 112.220553,130.796271 C110.570553,143.446271 100.590553,152.516271 89.9105525,151.076271 C79.2305525,149.636271 71.9105525,138.316271 73.5805525,125.726271 C75.2505525,113.136271 85.2105525,103.976271 95.8905525,105.446271 Z" fill="#FFFFFF" fill-rule="nonzero" id="路径" stroke="#060707" stroke-width="2"></path>
<ellipse cx="82.3901587" cy="134.853444" fill="#1E2C09" fill-rule="nonzero" id="椭圆形" rx="2.76" ry="2.48" stroke="#1A0107" stroke-width="4" transform="translate(82.390159, 134.853444) rotate(-66.980000) translate(-82.390159, -134.853444) "></ellipse>
<ellipse cx="83.4981336" cy="134.08083" fill="#FFFFFF" fill-rule="nonzero" id="椭圆形" rx="1" ry="1" transform="translate(83.498134, 134.080830) rotate(-1.310000) translate(-83.498134, -134.080830) "></ellipse>
<ellipse cx="81.6481087" cy="133.904797" fill="#FFFFFF" fill-rule="nonzero" id="椭圆形" rx="1" ry="1" transform="translate(81.648109, 133.904797) rotate(-1.300000) translate(-81.648109, -133.904797) "></ellipse>
<path d="M96.3005525,151.276271 C96.3005525,151.276271 101.300553,149.986271 103.840553,147.576271 C106.380553,145.166271 112.010553,140.126271 113.170553,133.436271 C114.280553,127.036271 113.850553,124.936271 113.850553,124.936271 C113.850553,124.936271 112.490553,112.256271 101.240553,105.996271 C101.240553,105.996271 95.9805525,103.396271 91.4505525,104.366271 L93.6905525,105.246271 L97.9305525,105.726271 L102.630553,108.516271 L107.450553,112.696271 L108.900553,115.256271 L111.120553,121.146271 L112.120553,126.466271 L111.590553,130.826271 C111.590553,130.826271 110.390553,136.886271 110.230553,137.096271 C110.070553,137.306271 108.030553,141.096271 107.930553,141.206271 C107.830553,141.316271 104.690553,145.436271 104.560553,145.496271 C104.430553,145.556271 100.250553,149.136271 100.250553,149.136271 L98.6205525,150.136271 L96.3005525,151.276271 Z" fill="#000000" fill-rule="nonzero" id="路径"></path>
<path d="M82.1605525,110.976271 C82.1605525,110.976271 88.8305525,106.576271 95.6205525,108.056271 C102.410553,109.536271 109.690553,116.476271 109.460553,120.536271 L100.620553,120.986271 C100.620553,120.986271 85.8405525,110.826271 82.1605525,110.976271 Z" fill="#EDE4DD" fill-rule="nonzero" id="路径" opacity="0.41"></path>
<path d="M212.680553,155.976271 C212.680553,155.976271 224.750553,153.476271 222.930553,165.776271" fill="#FFD5B2" fill-rule="nonzero" id="路径" stroke="#000000" stroke-width="2"></path>
<path d="M64.3105525,108.636271 C65.6890116,106.091529 67.3676625,103.721274 69.3105525,101.576271 C72.364967,98.7676644 75.8839099,96.5108039 79.7105525,94.9062711 C85.7905525,92.5562711 90.4005525,93.0462711 94.2205525,93.4362711 C99.0005525,93.9262711 107.750553,97.7062711 111.120553,101.146271 C117.700553,107.856271 120.790553,113.896271 121.690553,119.886271 C122.806333,127.334148 121.398268,134.94122 117.690553,141.496271 C113.981757,147.372103 108.314192,151.746755 101.690553,153.846271 C91.5905525,156.996271 85.0105525,154.846271 80.1105525,152.676271 C75.8805525,150.816271 71.2005525,148.506271 66.8705525,141.786271 C63.1405525,135.996271 60.5105525,131.436271 60.8705525,123.546271 C61.2705525,115.306271 62.7405525,111.486271 64.3105525,108.636271 Z" fill="#FFFFFF" fill-rule="nonzero" id="路径" opacity="0.22"></path>
<path d="M87.3005525,51.1162711 C87.3005525,51.1162711 70.2505525,63.3362711 55.8205525,66.6762711 C47.1505525,68.6762711 39.5805525,65.5262711 36.8205525,60.1262711" id="路径" stroke="#000000" stroke-width="2"></path>
<path d="M54.9605525,66.6762711 C54.9605525,66.6762711 50.6005525,72.9362711 46.5205525,73.2062711" fill="#534741" fill-rule="nonzero" id="路径" stroke="#000000" stroke-width="2"></path>
<path d="M210.490553,186.126271 C210.490553,186.126271 212.120553,197.006271 218.760553,195.346271 C224.070553,194.006271 234.860553,179.346271 229.380553,158.546271 C223.900553,137.746271 209.380553,159.466271 209.380553,159.466271" fill="#FFD5B2" fill-rule="nonzero" id="路径" stroke="#000000" stroke-width="2"></path>
<path d="M213.460553,156.976271 C213.460553,156.976271 220.110553,156.856271 224.610553,161.676271 C227.300553,164.566271 229.220553,169.236271 228.460553,176.766271" fill="#FFD5B2" fill-rule="nonzero" id="路径" stroke="#000000" stroke-width="2"></path>
<path d="M201.570553,157.826271 C202.364953,155.417745 203.351456,153.07689 204.520553,150.826271 L212.170553,154.126271 L207.610553,160.756271 L207.610553,160.756271 L207.220553,161.246271 C207.220553,161.246271 201.240553,159.346271 201.570553,157.826271 Z" fill="#FFD5B2" fill-rule="nonzero" id="路径"></path>
<path d="M230.880553,160.406271 C231.42681,163.102669 231.761165,165.837689 231.880553,168.586271 C232.060553,172.796271 242.570553,176.046271 242.570553,176.046271 C242.570553,176.046271 243.510553,162.726271 241.460553,156.956271 C239.950553,152.666271 230.880553,160.406271 230.880553,160.406271 Z" fill="#FFD5B2" fill-rule="nonzero" id="路径"></path>
<path d="M198.180553,24.1062711 C197.670553,22.7562711 196.280553,19.0262711 195.520553,16.6462711 C195.405893,16.3262727 195.517665,15.9690496 195.79427,15.7714749 C196.070874,15.5739002 196.445038,15.5840257 196.710553,15.7962711 C199.000553,17.5762711 202.710553,20.9762711 201.950553,23.9162711 C201.86117,24.2521904 201.567422,24.4936277 201.220553,24.5162711 L198.920553,24.6062711 C198.591648,24.6173993 198.292949,24.4155756 198.180553,24.1062711 L198.180553,24.1062711 Z" fill="#534741" fill-rule="nonzero" id="路径" stroke="#000000" stroke-width="2"></path>
<path d="M201.910553,23.9762711 C201.933021,23.9144917 201.959752,23.854347 201.990553,23.7962711 C202.400553,23.0062711 206.250553,16.8662711 208.990553,16.9662711 C211.990553,17.0862711 205.900553,25.5262711 205.900553,25.5262711 L201.110553,24.9762711 L201.910553,23.9762711 Z" fill="#534741" fill-rule="nonzero" id="路径" stroke="#000000" stroke-width="2"></path>
<path d="M212.010553,166.226271 C212.010553,166.226271 221.710553,158.996271 225.570553,164.766271" fill="#FFD5B2" fill-rule="nonzero" id="路径" stroke="#000000" stroke-width="2"></path>
<circle cx="228.420553" cy="217.736271" fill="#DDAFAB" fill-rule="nonzero" id="椭圆形" r="11.42" stroke="#000000" stroke-width="2"></circle>
<path d="M252.650553,183.036271 C252.650553,183.036271 263.650553,153.036271 275.290553,162.266271 C286.930553,171.496271 261.260553,188.576271 252.650553,183.036271 Z" fill="#F7A089" fill-rule="nonzero" id="路径" stroke="#000000" stroke-width="2"></path>
<path d="M260.720553,187.876271 C260.720553,187.876271 275.880553,192.486271 275.550553,199.246271 C275.220553,206.006271 271.550553,214.246271 264.550553,212.756271 C257.550553,211.266271 253.350553,197.596271 254.000553,191.006271 C254.650553,184.416271 260.720553,187.876271 260.720553,187.876271 Z" fill="#F7A089" fill-rule="nonzero" id="路径" stroke="#000000" stroke-width="2"></path>
<path d="M251.380553,184.536271 C251.380553,184.536271 250.310553,191.536271 252.780553,192.656271 C255.250553,193.776271 262.500553,196.936271 263.980553,192.326271 C265.460553,187.716271 266.790553,181.776271 263.820553,180.796271 C260.850553,179.816271 251.660553,177.076271 251.380553,184.536271 Z" fill="#E8886B" fill-rule="nonzero" id="路径" stroke="#000000" stroke-width="2"></path>
<path d="M263.290553,192.326271 C263.290553,192.326271 267.770553,195.236271 268.440553,197.326271" fill="#963008" fill-rule="nonzero" id="路径" stroke="#000000" stroke-width="2"></path>
<path d="M260.600553,194.336271 C260.290625,197.354626 261.561104,200.319078 263.960553,202.176271" fill="#963008" fill-rule="nonzero" id="路径" stroke="#000000" stroke-width="2"></path>
<path d="M259.180553,179.726271 C259.180553,179.726271 263.960553,174.856271 263.960553,172.506271" fill="#963008" fill-rule="nonzero" id="路径" stroke="#000000" stroke-width="2"></path>
<path d="M196.500553,168.976271 C196.500553,168.976271 195.940553,151.326271 206.230553,144.546271" id="路径" stroke="#000000" stroke-width="2"></path>
<path d="M110.520553,116.736271 C110.520553,116.736271 116.700553,118.866271 118.200553,114.606271" id="路径" stroke="#000000" stroke-width="2"></path>
<path d="M111.570553,120.396271 C111.570553,120.396271 114.140553,123.446271 116.980553,122.666271 C117.780825,122.350187 118.550668,121.961918 119.280553,121.506271" fill="#FFD5B2" fill-rule="nonzero" id="路径" stroke="#000000" stroke-width="2"></path>
<path d="M109.200553,114.476271 C109.200553,114.476271 113.200553,115.476271 115.500553,112.256271 C116.459908,111.022883 117.142073,109.597159 117.500553,108.076271" fill="#FFD5B2" fill-rule="nonzero" id="路径" stroke="#000000" stroke-width="2"></path>
<path d="M254.380553,178.236271 C263.450553,154.506271 261.140553,147.316271 261.140553,147.316271" id="路径" stroke="#000000" stroke-width="2"></path>
<path d="M250.480553,138.116271 L252.110553,180.806271" id="路径" stroke="#000000" stroke-width="2"></path>
<path d="M202.730553,146.866271 C202.730553,146.866271 189.100553,154.986271 193.010553,171.766271" id="路径" stroke="#000000" stroke-width="2"></path>
<path d="M284.740553,318.376271 L270.380553,270.706271 C259.380553,242.576271 252.740553,193.136271 252.740553,193.136271" id="路径" stroke="#000000" stroke-width="2"></path>
<path d="M264.510553,212.756271 C264.510553,212.756271 300.610553,327.626271 327.060553,357.546271" id="路径" stroke="#000000" stroke-width="2"></path>
<path d="M184.890553,17.3262711 C184.474911,19.541165 185.350641,21.8002365 187.150553,23.1562711 C187.150553,23.1562711 188.430553,25.3662711 199.670553,25.0362711" id="路径" stroke="#000000" stroke-width="2"></path>
<circle cx="227.930553" cy="217.556271" fill="#F2F4F4" fill-rule="nonzero" id="椭圆形" r="6.75" stroke="#000000"></circle>
<circle cx="118.790553" cy="152.736271" fill="#000000" fill-rule="nonzero" id="椭圆形" r="1.15"></circle>
</g>
<path d="M396.327904,374.809835 C397.455272,373.912652 401.586482,380.93181 402.122979,380.608302 C402.659475,380.284793 399.752366,373.066433 401.127162,372.401019 C402.501959,371.735606 406.730119,378.720983 407.210411,378.464368 C407.690703,378.207753 404.608658,370.861657 406.174337,370.060938 C407.740015,369.26022 413.246344,376.610048 413.246344,376.892081 C413.246344,377.174115 412.700036,377.460488 412.349359,377.460488 C411.998681,377.460488 408.314879,371.090369 407.210411,371.698543 C406.105943,372.306716 408.133093,379.031353 408.133093,379.260175 C408.133093,379.488997 407.796546,379.712248 407.439953,379.712248 C407.08336,379.712248 402.989126,374.028222 402.122979,374.455014 C401.075426,374.971194 403.210484,380.976678 403.210484,381.362652 C403.210484,381.748625 402.610833,381.971837 402.344337,381.835741 C402.077841,381.699645 398.361433,376.594957 397.308362,377.122755 C396.255291,377.650553 398.431971,383.631778 398.431971,383.929866 C398.431971,384.227955 397.764782,384.489433 397.544495,384.370465 C397.324209,384.251497 395.200536,375.707017 396.327904,374.809835 Z" fill="#44D7B6" id="icon" opacity="0.0" stroke="#44D7B6"><animate attributeName="opacity" begin="0.5s" dur="0.00s" fill="freeze" id="opacity_b1_icon_1" repeatCount="1" to="0.0"></animate><animate attributeName="opacity" begin="opacity_b1_icon_1.end" dur="0.01s" fill="freeze" id="opacity_ey11_icon_2" repeatCount="1" to="0.0"></animate><animate attributeName="opacity" begin="opacity_ey11_icon_2.end" dur="0.07s" fill="freeze" id="opacity_ey12_icon_3" repeatCount="1" to="0.0"></animate><animate attributeName="opacity" begin="opacity_ey12_icon_3.end" dur="0.41s" fill="freeze" id="opacity_ey12_icon_4" repeatCount="1" to="0.0"></animate></path>
</g>
</svg>